<svg width="25" height="24" viewBox="0 0 25 24" fill="none" xmlns="http://www.w3.org/2000/svg">
<g id="ic / share-24">
<path id="Union" fill-rule="evenodd" clip-rule="evenodd" d="M12.0761 1.45079C12.3104 1.21648 12.6903 1.21648 12.9246 1.45079L17.4246 5.95079C17.6589 6.1851 17.6589 6.565 17.4246 6.79932C17.1903 7.03363 16.8104 7.03363 16.5761 6.79932L13.1001 3.32339V13.1251C13.1001 13.4564 12.8315 13.7251 12.5001 13.7251C12.1688 13.7251 11.9001 13.4564 11.9001 13.1251V3.32378L8.42461 6.79932C8.19029 7.03363 7.81039 7.03363 7.57608 6.79932C7.34176 6.565 7.34176 6.18511 7.57608 5.95079L12.0761 1.45079ZM4.62515 11.3501C4.3352 11.3501 4.10015 11.5851 4.10015 11.8751V21.0001C4.10015 21.29 4.3352 21.5251 4.62515 21.5251H20.3751C20.6651 21.5251 20.9001 21.29 20.9001 21.0001V11.8751C20.9001 11.5851 20.6651 11.3501 20.3751 11.3501H18.1251C17.7938 11.3501 17.5251 11.0814 17.5251 10.7501C17.5251 10.4187 17.7938 10.1501 18.1251 10.1501H20.3751C21.3278 10.1501 22.1001 10.9224 22.1001 11.8751V21.0001C22.1001 21.9527 21.3278 22.7251 20.3751 22.7251H4.62515C3.67246 22.7251 2.90015 21.9527 2.90015 21.0001V11.8751C2.90015 10.9224 3.67246 10.1501 4.62515 10.1501H6.87515C7.20652 10.1501 7.47515 10.4187 7.47515 10.7501C7.47515 11.0814 7.20652 11.3501 6.87515 11.3501H4.62515Z" fill="#101010"/>
</g>
</svg>
